<svg width="24" height="18" viewBox="0 0 24 18" fill="none" xmlns="http://www.w3.org/2000/svg">
<path fill-rule="evenodd" clip-rule="evenodd" d="M2.625 0C1.17525 0 6.74481e-09 1.17525 6.74481e-09 2.625V3.72866C-0.000244435 3.74219 -0.00024385 3.75571 6.74481e-09 3.76923V15.375C6.74481e-09 16.8247 1.17525 18 2.625 18H21.375C22.8247 18 24 16.8247 24 15.375V3.76898C24.0003 3.75564 24.0003 3.74227 24 3.72891V2.625C24 1.17525 22.8247 0 21.375 0H2.625ZM21.75 3.10544V2.625C21.75 2.41789 21.5821 2.25 21.375 2.25H2.625C2.41789 2.25 2.25 2.41789 2.25 2.625V3.10544L12 8.82095L21.75 3.10544ZM2.25 5.71353V15.375C2.25 15.5821 2.41789 15.75 2.625 15.75H21.375C21.5821 15.75 21.75 15.5821 21.75 15.375V5.71353L12.5689 11.0955C12.2176 11.3015 11.7824 11.3015 11.4311 11.0955L2.25 5.71353Z" fill="white"/>
</svg>
