<svg width="102" height="63" viewBox="0 0 102 63" fill="none" xmlns="http://www.w3.org/2000/svg">
<path d="M51.3501 5.8487L42.2986 11.6974L51.3501 17.5461L42.2986 23.3948L33.2472 17.4974L42.2986 11.6487L33.2472 5.8487L42.2986 0L51.3501 5.8487ZM42.2505 25.2469L51.3019 19.3982L60.3534 25.2469L51.3019 31.0956L42.2505 25.2469ZM51.3501 17.4974L60.4015 11.6487L51.3501 5.8487L60.3534 0L69.4049 5.8487L60.3534 11.6974L69.4049 17.5461L60.3534 23.3948L51.3501 17.4974Z" fill="#4F5665"/>
<path d="M0.00012207 40.2142H6.61664C10.839 40.2142 14.3214 42.6519 14.3214 48.2237V49.399C14.3214 55.0143 11.0567 57.5391 6.74723 57.5391H0.00012207V40.2142ZM3.70015 43.3484V54.3614H6.52958C8.92371 54.3614 10.5343 52.7943 10.5343 49.3119V48.3978C10.5343 44.9154 8.83665 43.3484 6.39899 43.3484H3.70015ZM16.2802 43.5225H19.2403L19.7191 46.7872C20.285 44.5672 21.7214 43.3919 24.3332 43.3919H25.2474V47.1355H23.7238C20.7203 47.1355 19.9803 48.1802 19.9803 51.1402V57.5826H16.3238V43.5225H16.2802ZM25.9874 50.8355V50.4437C25.9874 45.7425 28.9909 43.1743 33.0827 43.1743C37.2616 43.1743 40.178 45.7425 40.178 50.4437V50.8355C40.178 55.4496 37.3486 57.9308 33.0827 57.9308C28.5556 57.8873 25.9874 55.4496 25.9874 50.8355ZM36.4345 50.792V50.4437C36.4345 47.8319 35.1286 46.2649 33.0392 46.2649C30.9933 46.2649 29.6439 47.7013 29.6439 50.4437V50.792C29.6439 53.3167 30.9497 54.7532 33.0392 54.7532C35.1286 54.7096 36.4345 53.3167 36.4345 50.792ZM42.0933 43.5225H45.1404L45.4887 46.1778C46.2287 44.3931 47.7957 43.1743 50.1028 43.1743C53.6722 43.1743 56.0229 45.7425 56.0229 50.4873V50.879C56.0229 55.4932 53.4111 57.9308 50.1028 57.9308C47.8828 57.9308 46.3593 56.9296 45.6193 55.319V62.4144H42.0498L42.0933 43.5225ZM52.3228 50.792V50.4873C52.3228 47.7013 50.8864 46.3084 48.971 46.3084C46.9251 46.3084 45.5757 47.8755 45.5757 50.4873V50.7484C45.5757 53.2296 46.8816 54.7967 48.9275 54.7967C51.0169 54.7532 52.3228 53.4037 52.3228 50.792ZM61.4205 54.9708L61.1158 57.5391H57.9817V38.8213H61.5511V46.0037C62.3347 44.1754 63.9017 43.1743 66.1217 43.1743C69.4735 43.2178 71.9547 45.5249 71.9547 50.1825V50.6178C71.9547 55.2755 69.6041 57.9308 66.0347 57.9308C63.6841 57.8873 62.1605 56.7991 61.4205 54.9708ZM68.2112 50.6178V50.2696C68.2112 47.7013 66.8182 46.2649 64.8594 46.2649C62.857 46.2649 61.4641 47.8755 61.4641 50.3131V50.6178C61.4641 53.2296 62.8135 54.7532 64.8159 54.7532C66.9488 54.7532 68.2112 53.4037 68.2112 50.6178ZM73.5218 50.8355V50.4437C73.5218 45.7425 76.5254 43.1743 80.6171 43.1743C84.796 43.1743 87.7125 45.7425 87.7125 50.4437V50.8355C87.7125 55.4496 84.8395 57.9308 80.6171 57.9308C76.0901 57.8873 73.5218 55.4496 73.5218 50.8355ZM84.0125 50.792V50.4437C84.0125 47.8319 82.7066 46.2649 80.6171 46.2649C78.5713 46.2649 77.2218 47.7013 77.2218 50.4437V50.792C77.2218 53.3167 78.5277 54.7532 80.6171 54.7532C82.7066 54.7096 84.0125 53.3167 84.0125 50.792ZM92.5007 50.2696L87.5819 43.5225H91.8043L94.6337 47.7449L97.5067 43.5225H101.686L96.6796 50.2261L101.947 57.5391H97.8114L94.5902 52.8814L91.456 57.5391H87.1466L92.5007 50.2696Z" fill="#4F5665"/>
</svg>
