<svg width="16" height="16" viewBox="0 0 16 16" fill="none" xmlns="http://www.w3.org/2000/svg">
<path d="M3 2.5L13 13.5" stroke="#4F5665" stroke-linecap="round" stroke-linejoin="round"/>
<path d="M9.68167 9.85012C9.19105 10.2961 8.54337 10.5289 7.88112 10.4973C7.21886 10.4657 6.59627 10.1724 6.15028 9.6818C5.70429 9.19121 5.47144 8.54356 5.50295 7.8813C5.53446 7.21904 5.82774 6.59642 6.31828 6.15039" stroke="#4F5665" stroke-linecap="round" stroke-linejoin="round"/>
<path d="M4.62465 4.28711C2.07657 5.57746 1 8.00001 1 8.00001C1 8.00001 3 12.4995 8 12.4995C9.1715 12.5089 10.3284 12.239 11.3748 11.7124" stroke="#4F5665" stroke-linecap="round" stroke-linejoin="round"/>
<path d="M13.0381 10.5692C14.4007 9.34876 15 8.0005 15 8.0005C15 8.0005 13 3.50001 7.99997 3.50001C7.56693 3.4993 7.13457 3.53451 6.70734 3.60527" stroke="#4F5665" stroke-linecap="round" stroke-linejoin="round"/>
<path d="M8.47046 5.54395C9.00182 5.64598 9.48577 5.91754 9.84972 6.3179C10.2137 6.71827 10.438 7.22584 10.4891 7.76449" stroke="#4F5665" stroke-linecap="round" stroke-linejoin="round"/>
</svg>
