<svg width="29" height="35" viewBox="0 0 29 35" fill="none" xmlns="http://www.w3.org/2000/svg">
<path d="M23.7756 18.6179C23.7385 14.1922 27.3977 12.0411 27.5584 11.9422C25.4816 8.92581 22.2674 8.50549 21.1424 8.4684C18.4474 8.18407 15.8266 10.0879 14.4544 10.0879C13.0574 10.0879 10.9311 8.50549 8.65646 8.54258C5.72659 8.59203 2.96979 10.2857 1.47395 12.9312C-1.629 18.3088 0.682758 26.2207 3.66208 30.5722C5.15792 32.6986 6.88864 35.0845 9.17567 34.9979C11.4009 34.9114 12.2415 33.5763 14.9242 33.5763C17.5944 33.5763 18.3732 34.9979 20.6974 34.9485C23.0956 34.9114 24.5915 32.8098 26.0379 30.6588C27.7562 28.2234 28.4485 25.8127 28.4733 25.6891C28.4114 25.6644 23.825 23.9089 23.7756 18.6179Z" fill="#4A4848"/>
<path d="M19.3872 5.61249C20.5864 4.11665 21.4023 2.07687 21.1798 0C19.4491 0.0741739 17.2733 1.19915 16.0247 2.67026C14.9244 3.96831 13.9355 6.08226 14.1827 8.0726C16.136 8.22094 18.1386 7.08361 19.3872 5.61249Z" fill="#4A4848"/>
</svg>
