<svg width="32" height="36" viewBox="0 0 32 36" fill="none" xmlns="http://www.w3.org/2000/svg">
<path d="M0.555314 0.490234C0.138828 0.906721 0 1.60086 0 2.43384V33.115C0 33.948 0.277657 34.6421 0.694143 35.0586L0.832973 35.1974L18.0477 17.9827V17.705L0.555314 0.490234Z" fill="url(#paint0_linear_104_1795)"/>
<path d="M23.6009 23.8131L17.9089 18.1212V17.7047L23.6009 12.0127L23.7397 12.1515L30.5423 16.0387C32.4859 17.1494 32.4859 18.9541 30.5423 20.0648L23.6009 23.8131Z" fill="url(#paint1_linear_104_1795)"/>
<path d="M23.7397 23.6746L17.9089 17.8438L0.555298 35.1973C1.24944 35.8915 2.22124 35.8915 3.4707 35.3362L23.7397 23.6746Z" fill="url(#paint2_linear_104_1795)"/>
<path d="M23.7397 12.0124L3.4707 0.489568C2.22124 -0.204575 1.24944 -0.0657466 0.555298 0.628397L17.9089 17.8432L23.7397 12.0124Z" fill="url(#paint3_linear_104_1795)"/>
<path opacity="0.2" d="M23.6009 23.5352L3.4707 34.9191C2.36007 35.6133 1.38827 35.4744 0.694127 34.9191L0.555298 35.0579L0.694127 35.1968C1.38827 35.7521 2.36007 35.8909 3.4707 35.1968L23.6009 23.5352Z" fill="black"/>
<path opacity="0.2" d="M0.555314 34.9197C0.138828 34.5032 0 33.809 0 32.9761V33.1149C0 33.9479 0.277657 34.642 0.694143 35.0585V34.9197H0.555314ZM30.5423 19.6485L23.6009 23.5357L23.7397 23.6746L30.5423 19.7874C31.5141 19.232 31.9306 18.5379 31.9306 17.8438C31.9306 18.5379 31.3753 19.0932 30.5423 19.6485Z" fill="black"/>
<path opacity="0.2" d="M3.47072 0.628629L30.5423 16.0386C31.3753 16.5939 31.9306 17.1492 31.9306 17.8434C31.9306 17.1492 31.5141 16.4551 30.5423 15.8998L3.47072 0.489801C1.52712 -0.620829 0 0.212143 0 2.4334V2.57223C0 0.489801 1.52712 -0.482 3.47072 0.628629Z" fill="white"/>
<defs>
<linearGradient id="paint0_linear_104_1795" x1="16.3818" y1="2.17006" x2="-6.91784" y2="25.4683" gradientUnits="userSpaceOnUse">
<stop stop-color="#00A0FF"/>
<stop offset="0.007" stop-color="#00A1FF"/>
<stop offset="0.26" stop-color="#00BEFF"/>
<stop offset="0.512" stop-color="#00D2FF"/>
<stop offset="0.76" stop-color="#00DFFF"/>
<stop offset="1" stop-color="#00E3FF"/>
</linearGradient>
<linearGradient id="paint1_linear_104_1795" x1="33.0884" y1="17.8449" x2="-0.503976" y2="17.8449" gradientUnits="userSpaceOnUse">
<stop stop-color="#FFE000"/>
<stop offset="0.409" stop-color="#FFBD00"/>
<stop offset="0.775" stop-color="#FFA500"/>
<stop offset="1" stop-color="#FF9C00"/>
</linearGradient>
<linearGradient id="paint2_linear_104_1795" x1="20.5841" y1="21.0313" x2="-11.0105" y2="52.6259" gradientUnits="userSpaceOnUse">
<stop stop-color="#FF3A44"/>
<stop offset="1" stop-color="#C31162"/>
</linearGradient>
<linearGradient id="paint3_linear_104_1795" x1="-3.75256" y1="-9.67825" x2="10.3566" y2="4.43092" gradientUnits="userSpaceOnUse">
<stop stop-color="#32A071"/>
<stop offset="0.069" stop-color="#2DA771"/>
<stop offset="0.476" stop-color="#15CF74"/>
<stop offset="0.801" stop-color="#06E775"/>
<stop offset="1" stop-color="#00F076"/>
</linearGradient>
</defs>
</svg>
