<svg width="27" height="27" viewBox="0 0 27 27" fill="none" xmlns="http://www.w3.org/2000/svg">
<path d="M14.6759 13.4844C15.2646 12.9747 15.7369 12.3444 16.0606 11.6361C16.3842 10.9279 16.5517 10.1583 16.5517 9.37955C16.5517 7.91628 15.9705 6.51295 14.9358 5.47827C13.9011 4.44358 12.4978 3.8623 11.0345 3.8623C9.57123 3.8623 8.1679 4.44358 7.13322 5.47827C6.09853 6.51295 5.51725 7.91628 5.51725 9.37955C5.51725 10.1583 5.68476 10.9279 6.00843 11.6361C6.33209 12.3444 6.80434 12.9747 7.39312 13.4844C5.84844 14.1838 4.53791 15.3134 3.6182 16.7379C2.69849 18.1625 2.20853 19.8218 2.20691 21.5175C2.20691 21.8101 2.32316 22.0908 2.5301 22.2977C2.73704 22.5047 3.0177 22.6209 3.31036 22.6209C3.60301 22.6209 3.88368 22.5047 4.09061 22.2977C4.29755 22.0908 4.41381 21.8101 4.41381 21.5175C4.41381 19.7616 5.11134 18.0776 6.35296 16.8359C7.59458 15.5943 9.27858 14.8968 11.0345 14.8968C12.7904 14.8968 14.4744 15.5943 15.716 16.8359C16.9577 18.0776 17.6552 19.7616 17.6552 21.5175C17.6552 21.8101 17.7714 22.0908 17.9784 22.2977C18.1853 22.5047 18.466 22.6209 18.7586 22.6209C19.0513 22.6209 19.332 22.5047 19.5389 22.2977C19.7458 22.0908 19.8621 21.8101 19.8621 21.5175C19.8605 19.8218 19.3705 18.1625 18.4508 16.7379C17.5311 15.3134 16.2205 14.1838 14.6759 13.4844ZM11.0345 12.6899C10.3798 12.6899 9.73975 12.4957 9.19537 12.132C8.65098 11.7683 8.22669 11.2512 7.97614 10.6464C7.72558 10.0415 7.66003 9.37587 7.78776 8.73373C7.91549 8.09159 8.23077 7.50174 8.69373 7.03878C9.15669 6.57582 9.74654 6.26054 10.3887 6.13281C11.0308 6.00508 11.6964 6.07063 12.3013 6.32119C12.9062 6.57174 13.4232 6.99603 13.7869 7.54042C14.1507 8.0848 14.3448 8.72482 14.3448 9.37955C14.3448 10.2575 13.9961 11.0995 13.3753 11.7203C12.7545 12.3411 11.9125 12.6899 11.0345 12.6899ZM23.9559 10.0747C23.8533 9.97129 23.7313 9.8892 23.5968 9.83318C23.4623 9.77716 23.3181 9.74832 23.1724 9.74832C23.0268 9.74832 22.8825 9.77716 22.7481 9.83318C22.6136 9.8892 22.4916 9.97129 22.389 10.0747L20.1821 12.2816L19.4979 11.5864C19.3954 11.483 19.2733 11.4009 19.1389 11.3449C19.0044 11.2889 18.8602 11.26 18.7145 11.26C18.5688 11.26 18.4246 11.2889 18.2901 11.3449C18.1557 11.4009 18.0336 11.483 17.931 11.5864C17.7255 11.7932 17.6102 12.0729 17.6102 12.3644C17.6102 12.6559 17.7255 12.9356 17.931 13.1423L19.4097 14.6209C19.6164 14.8264 19.8961 14.9418 20.1876 14.9418C20.4791 14.9418 20.7588 14.8264 20.9655 14.6209L23.9117 11.6747C24.0231 11.5747 24.113 11.453 24.1759 11.3171C24.2388 11.1812 24.2733 11.0339 24.2774 10.8842C24.2816 10.7345 24.2552 10.5856 24.1999 10.4464C24.1446 10.3072 24.0616 10.1808 23.9559 10.0747Z" fill="#2948FF"/>
</svg>
