<svg width="20" height="20" viewBox="0 0 20 20" fill="none" xmlns="http://www.w3.org/2000/svg">
<path fill-rule="evenodd" clip-rule="evenodd" d="M7.592 12.707C11.281 12.707 14.434 13.266 14.434 15.499C14.434 17.732 11.302 18.307 7.592 18.307C3.902 18.307 0.75 17.753 0.75 15.519C0.75 13.285 3.881 12.707 7.592 12.707Z" stroke="#2948FF" stroke-width="1.5" stroke-linecap="round" stroke-linejoin="round"/>
<path fill-rule="evenodd" clip-rule="evenodd" d="M7.59108 9.52C5.16908 9.52 3.20508 7.557 3.20508 5.135C3.20508 2.713 5.16908 0.75 7.59108 0.75C10.0121 0.75 11.9761 2.713 11.9761 5.135C11.9851 7.548 10.0351 9.511 7.62208 9.52H7.59108Z" stroke="#2948FF" stroke-width="1.5" stroke-linecap="round" stroke-linejoin="round"/>
<path d="M14.4844 8.38183C16.0854 8.15683 17.3184 6.78283 17.3214 5.11983C17.3214 3.48083 16.1264 2.12083 14.5594 1.86383" stroke="#2948FF" stroke-width="1.5" stroke-linecap="round" stroke-linejoin="round"/>
<path d="M16.5957 12.2324C18.1467 12.4634 19.2297 13.0074 19.2297 14.1274C19.2297 14.8984 18.7197 15.3984 17.8957 15.7114" stroke="#2948FF" stroke-width="1.5" stroke-linecap="round" stroke-linejoin="round"/>
</svg>
