<svg width="117" height="36" viewBox="0 0 117 36" fill="none" xmlns="http://www.w3.org/2000/svg">
<path d="M61.505 8.96979C61.505 10.2596 60.4325 11.3148 59.1216 11.3148C57.8108 11.3148 56.7382 10.2596 56.7382 8.96979C56.7382 7.68002 57.7512 6.62475 59.1216 6.62475C60.4921 6.65406 61.505 7.70933 61.505 8.96979ZM51.7331 13.6599C51.7331 13.8651 51.7331 14.2461 51.7331 14.2461C51.7331 14.2461 50.601 12.8098 48.1878 12.8098C44.2254 12.8098 41.0972 15.7997 41.0972 19.9036C41.0972 24.0074 44.1659 26.9973 48.1878 26.9973C50.6308 26.9973 51.7331 25.5317 51.7331 25.5317V26.1472C51.7331 26.4404 51.9417 26.6456 52.2396 26.6456H55.189V13.1616C55.189 13.1616 52.4779 13.1616 52.2396 13.1616C51.9417 13.1616 51.7331 13.4254 51.7331 13.6599ZM51.7331 22.3072C51.1969 23.0987 50.0945 23.7729 48.7837 23.7729C46.4599 23.7729 44.6723 22.3365 44.6723 19.9036C44.6723 17.4706 46.4599 16.0342 48.7837 16.0342C50.0648 16.0342 51.2267 16.7377 51.7331 17.4999V22.3072ZM57.3937 13.1616H60.9092V26.6456H57.3937V13.1616ZM109.679 12.8098C107.266 12.8098 106.134 14.2461 106.134 14.2461V6.68338H102.619V26.6749C102.619 26.6749 105.33 26.6749 105.568 26.6749C105.866 26.6749 106.074 26.4111 106.074 26.1765V25.561C106.074 25.561 107.207 27.0266 109.62 27.0266C113.582 27.0266 116.71 24.0074 116.71 19.9329C116.74 15.829 113.612 12.8098 109.679 12.8098ZM109.113 23.7436C107.773 23.7436 106.7 23.0694 106.164 22.2779V17.4706C106.7 16.7671 107.892 16.0049 109.113 16.0049C111.437 16.0049 113.225 17.4413 113.225 19.8742C113.225 22.3072 111.437 23.7436 109.113 23.7436ZM100.831 18.6431V26.6749H97.3155V19.0535C97.3155 16.8257 96.6005 15.917 94.6044 15.917C93.5318 15.917 92.4593 16.4446 91.7741 17.2361V26.6456H88.2586V13.1616H91.0293C91.3272 13.1616 91.5358 13.4254 91.5358 13.6599V14.2461C92.5487 13.1909 93.9191 12.8098 95.2598 12.8098C96.7792 12.8098 98.0603 13.2495 99.103 14.0996C100.354 15.0962 100.831 16.386 100.831 18.6431ZM79.7678 12.8098C77.3546 12.8098 76.2225 14.2461 76.2225 14.2461V6.68338H72.707V26.6749C72.707 26.6749 75.4181 26.6749 75.6564 26.6749C75.9543 26.6749 76.1629 26.4111 76.1629 26.1765V25.561C76.1629 25.561 77.295 27.0266 79.7082 27.0266C83.6706 27.0266 86.7988 24.0074 86.7988 19.9329C86.8584 15.829 83.7599 12.8098 79.7678 12.8098ZM79.2017 23.7436C77.861 23.7436 76.7885 23.0694 76.2523 22.2779V17.4706C76.7885 16.7671 77.9802 16.0049 79.2017 16.0049C81.5255 16.0049 83.313 17.4413 83.313 19.8742C83.313 22.3072 81.5255 23.7436 79.2017 23.7436ZM69.6979 12.8098C70.7705 12.8098 71.3067 12.9857 71.3067 12.9857V16.1808C71.3067 16.1808 68.3871 15.2135 66.5697 17.2654V26.7042H63.0542V13.1616C63.0542 13.1616 65.7653 13.1616 66.0037 13.1616C66.3016 13.1616 66.5101 13.4254 66.5101 13.6599V14.2461C67.1954 13.484 68.6254 12.8098 69.6979 12.8098ZM33.3512 25.4437C33.1725 25.004 32.9937 24.535 32.815 24.1539C32.517 23.5091 32.2191 22.8935 31.9808 22.3365L31.951 22.3072C29.4484 16.9136 26.7373 11.4614 23.8772 6.09711L23.7581 5.89192C23.4601 5.36429 23.1622 4.77803 22.8941 4.19177C22.5366 3.54688 22.1791 2.87268 21.5832 2.22779C20.4213 0.791452 18.753 0 16.9654 0C15.1481 0 13.5095 0.791453 12.288 2.13985C11.7517 2.78474 11.3346 3.45894 10.9771 4.10383C10.6792 4.69009 10.3813 5.24704 10.1132 5.80398L9.99399 6.00917C7.19351 11.4028 4.45261 16.855 1.92025 22.2193L1.89046 22.2779C1.62233 22.8642 1.3542 23.4504 1.05628 24.0953C0.877521 24.4764 0.698767 24.9161 0.520013 25.3851C0.0433344 26.7042 -0.105628 27.9646 0.0731268 29.2544C0.460428 31.9512 2.30756 34.2083 4.81012 35.205C5.76347 35.586 6.74662 35.7912 7.75956 35.7912C8.05749 35.7912 8.415 35.7619 8.71292 35.7326C9.90461 35.586 11.1559 35.205 12.3476 34.5015C13.8372 33.6807 15.2672 32.4789 16.876 30.7787C18.4848 32.5082 19.9446 33.6807 21.4045 34.5015C22.5962 35.1757 23.8474 35.586 25.0391 35.7326C25.3371 35.7619 25.6946 35.7912 25.9925 35.7912C27.0054 35.7912 28.0482 35.6154 28.9419 35.205C31.5041 34.2083 33.2916 31.8926 33.6789 29.2544C33.9769 28.0233 33.8279 26.7628 33.3512 25.4437ZM16.9058 27.2904C14.9395 24.8575 13.6585 22.5417 13.2116 20.6071C13.0328 19.7863 13.003 19.0535 13.0924 18.4086C13.152 17.8223 13.3903 17.324 13.6882 16.9136C14.3735 15.9463 15.5354 15.3307 16.9058 15.3307C18.2763 15.3307 19.468 15.917 20.1234 16.9136C20.4213 17.3533 20.6299 17.8516 20.7192 18.4086C20.8384 19.0535 20.7788 19.8156 20.6001 20.6071C20.1532 22.5417 18.8721 24.8282 16.9058 27.2904ZM31.4445 28.9906C31.1764 30.8666 29.9251 32.4789 28.1376 33.1824C27.2736 33.5341 26.3202 33.6514 25.3669 33.5341C24.4433 33.4169 23.5495 33.1531 22.5962 32.5961C21.2853 31.8926 19.9744 30.7787 18.4252 29.1079C20.8384 26.2059 22.2982 23.5384 22.8345 21.164C23.1026 20.0501 23.1324 19.0535 23.0133 18.1155C22.8643 17.2068 22.5366 16.386 22.0301 15.6825C20.898 14.0703 18.9913 13.1322 16.876 13.1322C14.7608 13.1322 12.8541 14.0996 11.7219 15.6825C11.2155 16.386 10.8878 17.2361 10.7388 18.1155C10.5898 19.0535 10.6196 20.0794 10.9176 21.164C11.4538 23.5384 12.9732 26.2352 15.3268 29.1372C13.8372 30.7787 12.4966 31.8926 11.1559 32.6254C10.2025 33.1531 9.30877 33.4462 8.3852 33.5634C7.40205 33.6807 6.4487 33.5341 5.61451 33.2117C3.82697 32.5082 2.54589 30.8666 2.30756 29.0199C2.18839 28.1112 2.27776 27.2318 2.63527 26.2352C2.75444 25.8834 2.9332 25.5317 3.11195 25.092C3.38008 24.5057 3.64821 23.9194 3.94614 23.3039L3.97593 23.2452C6.47849 17.9103 9.1896 12.4287 11.9901 7.12307L12.1093 6.91788C12.4072 6.39024 12.7051 5.80398 12.9732 5.27635C13.2712 4.69009 13.5989 4.16245 13.9862 3.69344C14.7608 2.84336 15.7737 2.37436 16.9058 2.37436C18.0379 2.37436 19.0509 2.84336 19.8255 3.69344C20.2128 4.16245 20.5405 4.69009 20.8384 5.27635C21.1363 5.80398 21.4343 6.39024 21.7024 6.91788L21.8216 7.12307C24.5923 12.458 27.3034 17.9396 29.8059 23.2746V23.3039C30.1038 23.8901 30.3422 24.535 30.6401 25.092C30.8189 25.5317 30.9976 25.8834 31.1168 26.2352C31.4743 27.1439 31.5935 28.0526 31.4445 28.9906Z" fill="#4F5665"/>
</svg>
