<svg width="109" height="23" viewBox="0 0 109 23" fill="none" xmlns="http://www.w3.org/2000/svg">
<path d="M17.7907 20.5705C12.7246 20.5705 8.61898 16.4627 8.61898 11.3957C8.61898 6.32848 12.7246 2.22458 17.7907 2.22458C19.5763 2.22458 21.2434 2.73384 22.6517 3.61656L17.7907 11.3957L26.9421 6.11164C25.9478 4.52748 24.5218 3.16247 22.7974 2.12665C20.6032 0.812988 17.551 0 14.1759 0C9.36141 0 5.13766 1.74951 2.78219 4.36949C1.03827 6.30627 0 8.74388 0 11.3956C0 14.0492 1.03827 16.4886 2.78219 18.4267C5.14379 21.05 9.30462 22.7893 14.0397 22.7893C18.774 22.7893 22.9336 21.0486 25.2967 18.4267C25.4261 18.2824 25.5514 18.1366 25.6699 17.9854L25.3131 16.6479C23.6528 19.0178 20.9029 20.5705 17.7907 20.5705Z" fill="#4F5665"/>
<path d="M48.1309 22.2373L44.29 7.90887C43.673 5.59344 41.5646 3.8916 39.0544 3.8916C38.4033 3.8916 37.7795 4.00792 37.2007 4.21849L28.9319 7.22527H37.4363L38.8896 12.6526C37.4799 11.4394 35.6439 10.7011 33.6336 10.7011C29.6415 10.7011 26.4094 13.3763 26.4094 16.6762C26.4094 19.9763 29.6415 22.6554 33.6336 22.6554C36.5074 22.6554 39.0489 21.2485 40.6166 19.0869L41.4597 22.2373H48.1309ZM36.4148 20.0118C34.5734 20.0118 33.0806 18.5203 33.0806 16.6762C33.0806 14.8347 34.5734 13.342 36.4148 13.342C38.2562 13.342 39.7504 14.8347 39.7504 16.6762C39.7504 18.5203 38.2562 20.0118 36.4148 20.0118Z" fill="#4F5665"/>
<path d="M63.7913 3.89453C63.2874 3.89453 62.8107 4.00594 62.3857 4.20548L57.0766 6.67972C56.8137 5.09924 55.4408 3.89453 53.7846 3.89453C53.2834 3.89453 52.8053 4.00594 52.3749 4.20548L45.8931 7.22575H50.4504V22.2379H57.1215V8.89586C57.1215 7.97527 57.8666 7.22589 58.79 7.22589C59.708 7.22589 60.4585 7.97527 60.4585 8.89586V22.2379H67.1269V7.22575C67.1269 5.38471 65.6328 3.89467 63.7913 3.89467" fill="#4F5665"/>
<path d="M105.627 3.89453C105.122 3.89453 104.642 4.00594 104.211 4.20548L98.907 6.67972C98.6455 5.09924 97.2726 3.89453 95.6164 3.89453C95.1151 3.89453 94.6371 4.00594 94.2053 4.20548L87.7262 7.22575H92.2821V22.2379H98.9519V8.89586C98.9519 7.97527 99.6983 7.22589 100.622 7.22589C101.542 7.22589 102.288 7.97527 102.288 8.89586V22.2379H108.961V7.22575C108.961 5.38471 107.466 3.89467 105.627 3.89467" fill="#4F5665"/>
<path d="M88.8048 13.3423C88.8048 18.5603 84.5758 22.7894 79.3593 22.7894C74.1386 22.7894 69.9069 18.5603 69.9069 13.3423C69.9069 8.12564 74.1386 3.89453 79.3593 3.89453C84.5758 3.89453 88.8048 8.12577 88.8048 13.3423ZM79.7502 6.76185C79.4532 5.65017 78.3105 4.99027 77.1991 5.2891C76.0891 5.5867 75.4257 6.73011 75.724 7.84166L78.9643 19.9223C79.2639 21.0351 80.4039 21.6943 81.5153 21.4001C82.6267 21.0991 83.2873 19.9564 82.989 18.845L79.7502 6.76185Z" fill="#4F5665"/>
</svg>
