<svg width="69" height="69" viewBox="0 0 69 69" fill="none" xmlns="http://www.w3.org/2000/svg">
<path d="M33.0718 0H35.1878C45.4804 0.580075 52.819 4.48617 58.2596 9.9604C63.7004 15.4346 67.7222 22.6547 68.2596 32.9851V35.0317C67.7371 45.5273 63.6442 52.4544 58.2596 58.0906C52.6032 63.4442 45.6497 67.5005 35.1537 68.0166H33.0718C22.7806 67.4353 15.4407 63.5308 9.99999 58.0563C4.55932 52.5821 0.53743 45.3622 0 35.0317V32.9851C0.0267832 32.9776 0.0398805 32.9566 0.0341413 32.9169C0.548761 22.6259 4.59258 15.3308 10.0001 9.92628C15.4326 4.49661 22.8472 0.562573 33.0718 0ZM26.3823 4.87784C24.3545 5.42055 22.5359 6.10976 20.8875 6.92442C15.8702 9.40401 11.7327 12.9515 8.83963 17.4987C6.01592 21.9372 3.57099 27.647 3.92506 35.1339C4.1483 39.8541 5.22596 43.8246 6.92831 47.2092C10.2902 53.892 15.4084 58.816 22.4917 61.8087C25.9944 63.2886 30.3346 64.3267 35.2221 64.094C39.9102 63.8709 43.9726 62.8177 47.3383 61.1264C53.9346 57.8116 59.133 52.6971 62.0143 45.6402C63.4715 42.0704 64.5734 37.9465 64.3351 32.9509C63.8842 23.4874 60.0326 17.0707 54.9495 12.1775C52.4344 9.75626 49.4059 7.69673 45.8369 6.20815C42.3741 4.76385 37.8661 3.69298 33.0381 3.92271C30.6646 4.03567 28.4255 4.331 26.3823 4.87784Z" fill="#4F5665"/>
<path d="M30.99 25.1738C32.0714 25.8895 33.1774 26.5806 34.1983 27.3569C31.8921 28.8041 29.6313 30.2968 27.3382 31.7572C27.6864 32.0232 28.0823 32.2415 28.4303 32.5076C30.7425 31.0436 33.0554 29.5804 35.3588 28.1073C36.3918 28.7463 37.4089 29.4013 38.3623 30.1199C36.0543 31.5769 33.8236 33.1109 31.5363 34.5883C31.8752 34.8638 32.2906 35.0625 32.6624 35.3047C35.0265 33.8585 37.3318 32.3534 39.659 30.8704V26.0266H44.7785V35.68C46.2232 35.7595 47.8162 35.6914 49.318 35.7139V40.2508H39.659V35.6456C36.8211 37.3688 33.9129 39.3174 31.0583 41.1375C28.0855 39.2083 25.2205 37.1708 22.2528 35.2364C21.3931 37.9599 19.3513 40.0087 15.9727 40.2508C13.8657 40.4014 11.4714 40.1383 9.04443 40.2508V26.0266C12.0786 26.2275 15.4103 25.6211 17.8158 26.3677C19.9427 27.0279 21.4506 28.724 22.1502 30.8362C25.1201 28.972 28.0423 27.0604 30.99 25.1738ZM13.9249 30.5975V35.714C15.1444 35.72 16.0719 35.7908 16.7917 35.2366C17.8626 34.4122 18.0783 32.3686 17.133 31.2796C16.5021 30.553 15.4369 30.4005 13.9589 30.4951C13.9194 30.5008 13.9219 30.5491 13.9249 30.5975ZM50.6487 26.0266H55.7682V35.714H60.2733V40.2509H50.6143V26.129C50.6117 26.0806 50.6089 26.0323 50.6487 26.0266Z" fill="#4F5665"/>
</svg>
