<svg width="80" height="53" viewBox="0 0 80 53" fill="none" xmlns="http://www.w3.org/2000/svg">
<path d="M56.1353 1.59857C59.0367 0.173598 60.4745 0.360595 60.5068 1.80495C60.5456 3.68124 60.2682 6.17634 60.0683 7.98173C58.9915 17.7943 57.1926 25.8125 57.0572 35.8875C61.7962 23.6191 65.7679 15.0921 70.8873 4.5903C72.5122 1.24396 73.5502 1.86943 74.8848 1.2762C80.0816 -1.03845 80.2751 0.379986 79.5979 3.21053C77.077 13.6943 70.6228 46.7033 69.6365 51.786C69.3527 53.2566 67.7539 52.6332 67.3411 52.0581C65.4907 49.4984 63.4017 49.4584 63.6337 47.7563C64.7944 39.2821 68.9723 18.0206 70.062 13.0108C64.5105 24.3921 58.7529 38.62 55.7934 46.6873C55.168 48.4003 54.0267 48.2746 53.3176 47.0212C52.3182 45.2605 50.3775 44.3616 50.055 42.2809C49.0428 35.6658 51.2157 23.0568 51.5186 15.0799C48.4948 23.7938 43.4205 40.7116 41.196 48.3551C40.2806 51.5177 37.2243 51.0018 38.0367 47.9194C41.4151 35.0918 48.6946 12.4047 51.841 4.24854C52.5828 2.32706 54.5234 2.39153 56.1353 1.59857Z" fill="#4F5665"/>
<path d="M37.7082 0.0250658C36.7283 -0.213443 33.8848 1.32109 32.1375 1.62407C31.5831 1.72078 31.0543 2.30747 30.8673 2.72667C28.069 9.15491 25.5609 15.2827 23.3881 20.865C20.6092 21.3395 17.3597 21.9643 13.7232 22.7811C16.328 16.0995 18.9587 9.50941 21.5248 3.17145C22.7885 0.0507653 19.4616 -0.245789 18.172 2.91355C16.4956 7.02073 13.3556 14.7159 9.88032 23.6851C7.32705 24.3112 4.61913 25.0268 1.78859 25.8445C-0.268273 26.4383 -0.351985 26.9863 0.537802 28.2197C1.02778 28.9065 2.04007 28.8373 2.50424 29.3267C3.70355 30.595 4.43214 32.1121 6.57906 32.3417C4.66411 37.4642 2.74919 42.7468 1.01481 47.8333C-0.0748219 51.0261 3.02644 51.6792 4.21932 48.3006C6.14069 42.8543 8.16525 37.3423 10.2478 31.8464C11.9822 31.4433 16.1795 30.5393 20.0545 29.6986C16.979 38.1281 14.9544 44.53 14.1872 47.6462C14.0454 48.2457 14.2839 48.5784 14.4129 48.8228C15.4509 50.3335 16.4374 50.3953 17.7721 52.2632C18.1332 52.7725 19.3454 53.0472 19.758 51.7931C22.6078 43.1849 25.5415 35.1081 28.2752 27.8674C29.4099 27.6192 31.4538 27.1259 32.7046 25.2593C34.929 21.9465 35.5673 22.6184 36.1026 21.6113C36.7731 20.3469 36.3281 19.1599 33.9556 19.4532C33.9556 19.4532 33.0593 19.517 31.4023 19.7059C34.0329 12.9327 36.3346 7.18789 37.9917 2.81008C38.5593 1.32751 38.6303 0.2443 37.7082 0.0250658Z" fill="#4F5665"/>
<path d="M33.8269 43.9559C34.4394 45.5039 36.3543 45.0351 35.6257 43.1667C34.8841 41.2633 33.0402 35.5333 32.5565 33.6874C31.899 31.1999 34.7487 31.8802 33.3045 33.5063C32.0666 34.9047 31.2412 35.465 28.9524 38.124C26.7409 40.6908 27.3405 44.0217 29.7068 44.7574C32.3761 45.5878 34.7295 42.6464 36.1866 40.4885C37.5986 38.3988 36.2317 37.1731 34.8068 38.4085C33.8912 39.2028 32.8338 40.4226 31.7634 41.0803C30.893 41.6097 30.2096 41.041 31.3702 39.4434C32.7177 37.5936 34.2264 36.0436 35.3483 34.2956C37.6373 30.7333 33.111 28.6798 31.1638 30.9938C30.1193 32.2272 30.3837 33.4381 30.6674 34.4774C31.1252 36.1421 32.8274 41.4563 33.8269 43.9559Z" fill="#4F5665"/>
</svg>
