<svg width="102" height="59" viewBox="0 0 102 59" fill="none" xmlns="http://www.w3.org/2000/svg">
<path d="M101.927 48.0496V45.5688H98.8465V41.7119L98.7428 41.7438L95.8492 42.6291L95.7922 42.6465V45.5688H91.2251V43.941C91.2251 43.1829 91.3946 42.6028 91.7286 42.2159C92.0604 41.8337 92.5349 41.6394 93.1399 41.6394C93.5751 41.6394 94.0256 41.7419 94.4788 41.944L94.5924 41.9947V39.382L94.539 39.3624C94.1161 39.2104 93.5408 39.1338 92.828 39.1338C91.9294 39.1338 91.1128 39.3293 90.4008 39.7168C89.6883 40.1049 89.1278 40.6589 88.7353 41.3634C88.344 42.067 88.1455 42.8796 88.1455 43.7789V45.5688H86.0003V48.0496H88.1455V58.5009H91.2251V48.0496H95.7922V54.6913C95.7922 57.4267 97.0825 58.8129 99.6269 58.8129C100.045 58.8129 100.485 58.7638 100.935 58.6678C101.392 58.5693 101.703 58.4709 101.887 58.3659L101.927 58.342V55.8381L101.802 55.921C101.635 56.0325 101.427 56.1235 101.183 56.191C100.938 56.2599 100.733 56.2946 100.574 56.2946C99.9783 56.2946 99.5374 56.1339 99.2636 55.8169C98.9869 55.4971 98.8465 54.9376 98.8465 54.1552V48.0496H101.927ZM79.1232 56.2948C78.0054 56.2948 77.1242 55.9241 76.5031 55.1941C75.8783 54.4602 75.5617 53.4141 75.5617 52.085C75.5617 50.7137 75.8783 49.6405 76.5035 48.8937C77.1249 48.1518 77.9977 47.7754 79.0981 47.7754C80.1659 47.7754 81.0159 48.135 81.6246 48.8447C82.2367 49.5581 82.5471 50.6228 82.5471 52.0101C82.5471 53.4145 82.2551 54.4932 81.6792 55.2147C81.1075 55.931 80.2476 56.2948 79.1232 56.2948ZM79.2603 45.2572C77.1278 45.2572 75.434 45.882 74.2264 47.1144C73.0196 48.347 72.4076 50.0526 72.4076 52.1844C72.4076 54.2092 73.005 55.8378 74.1831 57.0243C75.3613 58.2114 76.9647 58.8127 78.9483 58.8127C81.0155 58.8127 82.6756 58.1791 83.8827 56.9297C85.0897 55.6814 85.7012 53.992 85.7012 51.91C85.7012 49.8535 85.1274 48.2127 83.9951 47.0341C82.8624 45.8549 81.269 45.2572 79.2603 45.2572ZM67.4424 45.2571C65.9918 45.2571 64.792 45.6281 63.8753 46.3597C62.9532 47.0956 62.4855 48.0609 62.4855 49.2288C62.4855 49.8359 62.5864 50.3752 62.7852 50.8326C62.9851 51.2916 63.2945 51.6955 63.7054 52.0346C64.1134 52.371 64.7429 52.7234 65.5773 53.0818C66.2786 53.3704 66.8017 53.6146 67.134 53.807C67.4588 53.9955 67.6894 54.1852 67.8195 54.3698C67.9459 54.5504 68.0102 54.7976 68.0102 55.1029C68.0102 55.9717 67.3597 56.3943 66.0208 56.3943C65.5243 56.3943 64.9578 56.2908 64.3372 56.0863C63.7163 55.8821 63.1362 55.5885 62.6132 55.2121L62.4855 55.1205V58.0853L62.5324 58.1071C62.9682 58.3082 63.5174 58.4777 64.1649 58.6113C64.8113 58.7449 65.3984 58.8129 65.9086 58.8129C67.4826 58.8129 68.7502 58.4401 69.6751 57.7042C70.6059 56.9632 71.0777 55.9752 71.0777 54.7667C71.0777 53.8951 70.8237 53.1474 70.3231 52.5446C69.826 51.9466 68.9632 51.3977 67.7597 50.9124C66.8009 50.5276 66.1866 50.2081 65.9333 49.963C65.689 49.726 65.565 49.391 65.565 48.9668C65.565 48.5907 65.718 48.2894 66.0324 48.0453C66.3492 47.8001 66.7899 47.6754 67.3429 47.6754C67.856 47.6754 68.3811 47.7564 68.903 47.9152C69.4248 48.074 69.883 48.2867 70.2656 48.547L70.3913 48.633V45.8205L70.343 45.7997C69.9901 45.6484 69.5248 45.5189 68.9597 45.4139C68.3968 45.3098 67.8862 45.2571 67.4424 45.2571ZM54.4571 56.2948C53.3397 56.2948 52.4582 55.9241 51.8373 55.1941C51.2123 54.4602 50.8962 53.4145 50.8962 52.085C50.8962 50.7137 51.2126 49.6405 51.838 48.8937C52.4589 48.1518 53.3315 47.7754 54.4324 47.7754C55.4999 47.7754 56.3499 48.135 56.9588 48.8447C57.5708 49.5581 57.8813 50.6228 57.8813 52.0101C57.8813 53.4145 57.5891 54.4932 57.0132 55.2147C56.4415 55.931 55.5819 56.2948 54.4571 56.2948ZM54.5946 45.2572C52.4616 45.2572 50.7678 45.882 49.5608 47.1144C48.354 48.347 47.7416 50.0526 47.7416 52.1844C47.7416 54.21 48.3393 55.8378 49.5174 57.0243C50.6956 58.2114 52.2989 58.8127 54.2827 58.8127C56.3493 58.8127 58.0099 58.1791 59.2171 56.9297C60.4237 55.6814 61.0356 53.992 61.0356 51.91C61.0356 49.8535 60.4616 48.2127 59.3291 47.0341C58.196 45.8549 56.603 45.2572 54.5946 45.2572ZM43.0669 47.8082V45.5688H40.0248V58.5006H43.0669V51.8855C43.0669 50.7606 43.3219 49.8366 43.8251 49.1386C44.322 48.4489 44.9842 48.0994 45.7925 48.0994C46.0665 48.0994 46.374 48.1446 46.7071 48.234C47.0369 48.3229 47.2757 48.4192 47.4166 48.5207L47.5443 48.6134V45.5466L47.495 45.5254C47.2117 45.405 46.811 45.3443 46.3039 45.3443C45.5396 45.3443 44.8554 45.5899 44.2694 46.0735C43.7552 46.4986 43.3833 47.0814 43.0991 47.8082H43.0669ZM34.5773 45.2571C33.1818 45.2571 31.9369 45.5565 30.878 46.1463C29.817 46.7375 28.9965 47.5817 28.4382 48.6552C27.8825 49.726 27.6004 50.9769 27.6004 52.3717C27.6004 53.5935 27.874 54.7149 28.4147 55.703C28.9558 56.6928 29.7217 57.4673 30.691 58.0044C31.659 58.5409 32.7779 58.8129 34.0166 58.8129C35.4622 58.8129 36.6965 58.5238 37.6862 57.9539L37.7261 57.9309V55.144L37.5983 55.2373C37.1501 55.5638 36.6491 55.8244 36.1101 56.0122C35.5724 56.1999 35.0822 56.2947 34.6525 56.2947C33.4588 56.2947 32.5007 55.9212 31.8051 55.185C31.1079 54.4476 30.7545 53.4123 30.7545 52.1095C30.7545 50.7984 31.1231 49.7366 31.8496 48.953C32.5737 48.1717 33.5337 47.7755 34.7026 47.7755C35.7025 47.7755 36.6769 48.1141 37.5987 48.7827L37.7261 48.8754V45.9389L37.685 45.9157C37.338 45.7216 36.865 45.5613 36.2776 45.4396C35.6928 45.3184 35.1209 45.2571 34.5773 45.2571ZM25.5053 45.5688H22.4632V58.5006H25.5053V45.5688ZM24.0153 40.0597C23.5146 40.0597 23.078 40.2301 22.7192 40.5679C22.359 40.9066 22.1761 41.3331 22.1761 41.8363C22.1761 42.3316 22.3568 42.7502 22.7135 43.0799C23.0679 43.4086 23.5059 43.5753 24.0153 43.5753C24.5245 43.5753 24.9642 43.4086 25.3229 43.0804C25.684 42.7502 25.8671 42.3316 25.8671 41.8363C25.8671 41.3506 25.689 40.9284 25.3378 40.5815C24.9871 40.2352 24.542 40.0597 24.0153 40.0597ZM16.4254 44.6147V58.5006H19.5298V40.4557H15.2332L9.77172 53.8589L4.47176 40.4557H0.00012207V58.5006H2.91748V44.6133H3.01778L8.61436 58.5006H10.816L16.3252 44.6147H16.4254Z" fill="#4F5665"/>
<path d="M48.2077 14.3103H33.8975V0H48.2077V14.3103Z" fill="#4F5665"/>
<path d="M64.0077 14.3103H49.6976V0H64.0077V14.3103Z" fill="#4F5665"/>
<path d="M48.2074 30.1159H33.8975V15.8057H48.2074V30.1159Z" fill="#4F5665"/>
<path d="M64.0077 30.1159H49.6976V15.8057H64.0077V30.1159Z" fill="#4F5665"/>
</svg>
