<svg width="32" height="32" viewBox="0 0 32 32" fill="none" xmlns="http://www.w3.org/2000/svg">
<path fill-rule="evenodd" clip-rule="evenodd" d="M16.8205 2.80099L25.6773 5.82358C26.6679 6.16224 27.3334 7.07422 27.3334 8.09552V16.95C27.3334 19.6339 26.3359 22.2325 24.5261 24.2605C23.6974 25.1898 22.634 25.9884 21.2756 26.7031L16.4885 29.2163C16.3389 29.2937 16.1743 29.3337 16.0083 29.3337C15.8436 29.3337 15.679 29.2937 15.5294 29.2163L10.7326 26.7017C9.37153 25.9857 8.3068 25.1871 7.47944 24.2618C5.66693 22.2312 4.66669 19.6312 4.66669 16.9446C4.66669 16.4033 5.11947 15.9633 5.67653 15.9633C6.2336 15.9633 6.68638 16.4033 6.68638 16.9446C6.68638 19.1606 7.50962 21.3019 9.00381 22.9765C9.66927 23.7218 10.5488 24.3751 11.6917 24.9751L16.0083 27.2377L20.3152 24.9764C21.4554 24.3778 22.3349 23.7245 23.0017 22.9765C24.4932 21.3032 25.315 19.1646 25.315 16.95V8.09552C25.315 7.90619 25.1915 7.7382 25.0091 7.67553L16.1523 4.65294C16.0549 4.61961 15.9465 4.61961 15.8477 4.65294L6.99235 7.67553C6.80987 7.7382 6.68638 7.90619 6.68638 8.09552V10.6288C6.68638 11.1714 6.2336 11.6114 5.67653 11.6114C5.11947 11.6114 4.66669 11.1714 4.66669 10.6288V8.09552C4.66669 7.07422 5.33352 6.16224 6.32415 5.82358L15.1795 2.80099C15.7091 2.62233 16.2923 2.62233 16.8205 2.80099ZM15.0483 19.0903C14.7794 19.0903 14.5242 18.9863 14.3349 18.8023L11.7883 16.3277C11.3945 15.9437 11.3945 15.3251 11.7883 14.9411C12.1835 14.5571 12.8215 14.5571 13.2153 14.9411L15.0483 16.721L19.5789 12.3198C19.9727 11.9372 20.6121 11.9372 21.0059 12.3198C21.3997 12.7025 21.3997 13.3238 21.0059 13.7064L15.7618 18.8023C15.5725 18.9863 15.3159 19.0903 15.0483 19.0903Z" fill="#2948FF"/>
</svg>
