<svg width="24" height="24" viewBox="0 0 24 24" fill="none" xmlns="http://www.w3.org/2000/svg">
<mask id="mask0_140_1673" style="mask-type:luminance" maskUnits="userSpaceOnUse" x="2" y="8" width="20" height="15">
<path fill-rule="evenodd" clip-rule="evenodd" d="M2.00049 8.79413H22.0001V22.5381H2.00049V8.79413Z" fill="white"/>
</mask>
<g mask="url(#mask0_140_1673)">
<path fill-rule="evenodd" clip-rule="evenodd" d="M17.5655 22.5381H6.43549C3.99049 22.5381 2.00049 20.5491 2.00049 18.1031V13.2281C2.00049 10.7831 3.99049 8.79413 6.43549 8.79413H7.36849C7.78249 8.79413 8.11849 9.13013 8.11849 9.54413C8.11849 9.95813 7.78249 10.2941 7.36849 10.2941H6.43549C4.81649 10.2941 3.50049 11.6101 3.50049 13.2281V18.1031C3.50049 19.7221 4.81649 21.0381 6.43549 21.0381H17.5655C19.1835 21.0381 20.5005 19.7221 20.5005 18.1031V13.2191C20.5005 11.6061 19.1885 10.2941 17.5765 10.2941H16.6335C16.2195 10.2941 15.8835 9.95813 15.8835 9.54413C15.8835 9.13013 16.2195 8.79413 16.6335 8.79413H17.5765C20.0155 8.79413 22.0005 10.7791 22.0005 13.2191V18.1031C22.0005 20.5491 20.0105 22.5381 17.5655 22.5381Z" fill="#4F5665"/>
</g>
<mask id="mask1_140_1673" style="mask-type:luminance" maskUnits="userSpaceOnUse" x="11" y="2" width="2" height="14">
<path fill-rule="evenodd" clip-rule="evenodd" d="M11.25 2.00012H12.75V15.541H11.25V2.00012Z" fill="white"/>
</mask>
<g mask="url(#mask1_140_1673)">
<path fill-rule="evenodd" clip-rule="evenodd" d="M12 15.541C11.586 15.541 11.25 15.205 11.25 14.791V2.75C11.25 2.336 11.586 2 12 2C12.414 2 12.75 2.336 12.75 2.75V14.791C12.75 15.205 12.414 15.541 12 15.541Z" fill="#4F5665"/>
</g>
<path fill-rule="evenodd" clip-rule="evenodd" d="M9.0852 6.42871C8.8942 6.42871 8.7022 6.35571 8.5562 6.20971C8.2632 5.91771 8.2612 5.44371 8.5542 5.14971L11.4692 2.22171C11.7502 1.93871 12.2502 1.93871 12.5312 2.22171L15.4472 5.14971C15.7392 5.44371 15.7382 5.91771 15.4452 6.20971C15.1512 6.50171 14.6772 6.50171 14.3852 6.20771L12.0002 3.81371L9.6162 6.20771C9.4702 6.35571 9.2772 6.42871 9.0852 6.42871Z" fill="#4F5665"/>
</svg>
