<svg width="375" height="531" viewBox="0 0 375 531" fill="none" xmlns="http://www.w3.org/2000/svg">
<path fill-rule="evenodd" clip-rule="evenodd" d="M1183 359.351L1104.08 389.875C1025.17 419.011 867.333 480.059 709.5 509.196C551.667 539.72 393.833 539.72 236 499.483C78.1666 459.247 -79.6667 380.162 -237.5 339.926C-395.333 299.69 -553.167 299.69 -632.083 299.69L-711 299.69V0H-632.083C-553.167 0 -395.333 0 -237.5 0C-79.6667 0 78.1666 0 236 0C393.833 0 551.667 0 709.5 0C867.333 0 1025.17 0 1104.08 0H1183V359.351Z" fill="#2948FF"/>
</svg>
