<svg width="35" height="12" viewBox="0 0 35 12" fill="none" xmlns="http://www.w3.org/2000/svg">
<path fill-rule="evenodd" clip-rule="evenodd" d="M5.80232 0.410156C5.79088 0.410156 5.77944 0.410156 5.76799 0.410156C4.23073 0.410156 2.75163 0.784141 1.31831 1.53861C0.736595 2.98755 0.408543 4.46049 0.391378 5.96342C0.36849 7.45436 0.661734 8.9813 1.31212 10.5387C2.80885 11.2207 4.30559 11.5707 5.80232 11.5892C7.29906 11.5707 8.7958 11.2207 10.2921 10.5387C10.9429 8.9813 11.2362 7.45436 11.2133 5.96342C11.1961 4.46049 10.8681 2.98755 10.2863 1.53861C8.85301 0.784141 7.37392 0.410156 5.83665 0.410156C5.82521 0.410156 5.81377 0.410156 5.80232 0.410156Z" fill="#FEFEFE"/>
<path d="M1.07666 1.20745C2.58484 0.398483 4.15024 0 5.76808 0C5.77953 0 5.79097 0 5.80242 0C5.81386 0 5.8253 0 5.83675 0C7.45459 0 9.01999 0.398483 10.5282 1.20745L10.6207 1.30995C11.2362 2.83088 11.5877 4.38232 11.6048 5.95775C11.6048 5.98775 11.6048 6.01175 11.6048 6.04225V6.15074C11.5991 7.66568 11.2882 9.21112 10.6207 10.7806L10.5167 10.883C8.94561 11.6135 7.37401 11.9815 5.80242 12C4.23082 11.9815 2.65922 11.6135 1.0881 10.883L0.984155 10.7806C0.316608 9.21112 0.00572183 7.66568 0 6.15074V6.04225C0 6.01175 0 5.98775 0 5.95775C0.0171655 4.38232 0.368581 2.83088 0.984155 1.30995L1.07666 1.20745ZM5.80242 0.410483C5.79097 0.410483 5.77953 0.410483 5.76808 0.410483C4.23082 0.410483 2.75172 0.784467 1.31841 1.53894C0.736686 2.98788 0.408634 4.46081 0.391469 5.96375C0.368581 7.45469 0.661825 8.98163 1.31221 10.5391C2.80894 11.221 4.30568 11.571 5.80242 11.5895C7.29915 11.571 8.79589 11.221 10.2921 10.5391C10.943 8.98163 11.2362 7.45469 11.2134 5.96375C11.1962 4.46081 10.8681 2.98788 10.2864 1.53894C8.85311 0.784467 7.37401 0.410483 5.83675 0.410483C5.8253 0.410483 5.81386 0.410483 5.80242 0.410483Z" fill="#003399"/>
<path fill-rule="evenodd" clip-rule="evenodd" d="M5.90554 9.35055C5.82495 8.1976 5.87693 6.99615 5.54887 5.8977C5.24371 4.87174 4.08647 4.28626 4.06358 3.15731C4.0407 2.27585 4.67963 1.25589 5.87693 1.25589C6.99936 1.24989 7.69599 2.10686 7.77658 3.06082C7.87432 4.16527 6.59645 4.90774 6.26267 5.95819C5.91698 7.03265 6.0152 8.2216 5.90554 9.35055Z" fill="#003399"/>
<path fill-rule="evenodd" clip-rule="evenodd" d="M6.34843 9.07161C6.30218 8.06965 6.30218 7.11019 6.56729 6.25873C6.86054 5.29327 7.47087 4.4783 8.40353 4.21281C9.04246 4.03182 9.98037 4.81629 9.83112 5.61925C9.70429 6.26523 9.08824 7.02569 8.09836 7.11019C7.63775 7.15219 7.44226 7.53867 7.15426 7.76216C8.44358 7.62917 9.27849 7.09819 9.85973 6.54271C9.94604 7.0132 10.0037 7.80416 9.65232 8.07565C8.96188 8.58863 8.32294 8.17215 7.51092 8.41364C7.05651 8.55263 6.77423 8.85462 6.34843 9.07161Z" fill="#003399"/>
<path fill-rule="evenodd" clip-rule="evenodd" d="M5.46906 9.07161C5.52056 8.06965 5.51484 7.11019 5.25593 6.25873C4.96221 5.29327 4.35235 4.4783 3.41969 4.21281C2.78076 4.03182 1.83665 4.81629 1.9921 5.61925C2.11893 6.26523 2.73451 7.02569 3.72486 7.11019C4.17974 7.15219 4.38096 7.53867 4.66896 7.76216C3.37344 7.62917 2.54473 7.09819 1.96349 6.54271C1.87718 7.0132 1.81949 7.80416 2.17043 8.07565C2.86134 8.58863 3.50028 8.17215 4.31182 8.41364C4.76671 8.55263 5.04279 8.85462 5.46906 9.07161Z" fill="#003399"/>
<path fill-rule="evenodd" clip-rule="evenodd" d="M8.53664 10.5633V10.4004L8.65204 10.3704L8.53664 10.1894V9.88738L9.05495 10.6418L8.8709 10.6903L8.74406 10.5029L8.53664 10.5633ZM8.53664 9.88738V10.1894L8.45606 10.0684L8.42173 10.4309L8.53664 10.4004V10.5633L8.40457 10.5938L8.3812 10.8168L8.19715 10.8653L8.31826 9.88138L8.50231 9.83288L8.53664 9.88738ZM6.82152 11.0888V10.9318H6.86158C6.92499 10.9258 6.96552 10.9198 6.98269 10.9133C7.00558 10.9073 7.02846 10.8893 7.04038 10.8713C7.05755 10.8473 7.06327 10.8228 7.06327 10.7928C7.05755 10.7628 7.05183 10.7383 7.03419 10.7203C7.02274 10.7023 6.99986 10.6903 6.97697 10.6843C6.95408 10.6783 6.90211 10.6783 6.82152 10.6843V10.5274C6.8673 10.5274 6.89638 10.5214 6.90783 10.5214C6.93644 10.5154 6.9598 10.4969 6.97697 10.4789C6.99413 10.4609 6.99985 10.4369 6.99413 10.4064C6.99413 10.3764 6.98269 10.3524 6.96552 10.3399C6.95408 10.3219 6.93072 10.3099 6.89639 10.3099C6.88494 10.3099 6.86158 10.3099 6.82152 10.3159V10.1589C6.88494 10.1529 6.93072 10.1529 6.9598 10.1589C6.99413 10.1589 7.02846 10.1714 7.05755 10.1894C7.08616 10.2014 7.10905 10.2254 7.13241 10.2554C7.14958 10.2859 7.16102 10.3219 7.16674 10.3644C7.17246 10.4064 7.16102 10.4489 7.14385 10.4849C7.12669 10.5214 7.0976 10.5513 7.05755 10.5753C7.11477 10.5878 7.16102 10.6118 7.18963 10.6478C7.22444 10.6843 7.2416 10.7263 7.24732 10.7808C7.24732 10.8228 7.2416 10.8653 7.23016 10.9073C7.21299 10.9498 7.18963 10.9798 7.16102 11.0103C7.12669 11.0343 7.09188 11.0523 7.04611 11.0643C7.01702 11.0703 6.94216 11.0763 6.83297 11.0888H6.82152ZM7.90915 10.5813L8.08796 10.6058C8.07651 10.7083 8.04743 10.7928 7.99593 10.8533C7.94396 10.9073 7.8691 10.9498 7.77707 10.9678C7.66168 10.9858 7.55821 10.9618 7.47191 10.8953C7.37988 10.8228 7.32791 10.7203 7.2993 10.5753C7.27593 10.4249 7.29358 10.2979 7.35652 10.2014C7.41421 10.1049 7.50624 10.0444 7.62735 10.0204C7.73654 10.0019 7.82285 10.0204 7.90343 10.0744C7.94968 10.1049 7.98973 10.1529 8.01882 10.2254L7.85193 10.2979C7.83477 10.2554 7.80568 10.2194 7.77135 10.2014C7.73082 10.1774 7.69077 10.1714 7.64452 10.1774C7.5811 10.1894 7.53532 10.2254 7.50052 10.2799C7.46618 10.3399 7.46046 10.4189 7.47763 10.5274C7.50052 10.6418 7.53532 10.7203 7.5811 10.7628C7.62735 10.8048 7.68505 10.8228 7.74799 10.8108C7.79424 10.7988 7.82904 10.7748 7.85765 10.7383C7.88626 10.7023 7.90343 10.6478 7.90915 10.5813ZM6.82152 10.1589V10.3159C6.79864 10.3159 6.77527 10.3219 6.74666 10.3219L6.64319 10.3344L6.66036 10.5454L6.78099 10.5334C6.79244 10.5334 6.81008 10.5334 6.82152 10.5274V10.6843C6.82152 10.6843 6.82152 10.6843 6.8158 10.6843L6.67752 10.6963L6.69469 10.9438L6.82152 10.9318V11.0888L6.53353 11.1188L6.45294 10.1954L6.80436 10.1654C6.81008 10.1589 6.8158 10.1589 6.82152 10.1589ZM5.71053 10.7688V10.6118C5.75059 10.6118 5.77395 10.6058 5.79112 10.5998C5.814 10.5938 5.83117 10.5753 5.84881 10.5573C5.86026 10.5333 5.86598 10.5094 5.86598 10.4849C5.8717 10.4489 5.86026 10.4249 5.84261 10.4004C5.82545 10.3764 5.80256 10.3644 5.77395 10.3584C5.75631 10.3584 5.73914 10.3524 5.71053 10.3524V10.1954C5.79684 10.1954 5.84881 10.2014 5.87742 10.2134C5.92939 10.2254 5.96945 10.2554 6.00426 10.3039C6.03859 10.3524 6.05575 10.4124 6.05003 10.4849C6.05003 10.5393 6.03859 10.5878 6.02142 10.6298C5.99806 10.6658 5.97517 10.6963 5.94656 10.7203C5.91175 10.7383 5.88314 10.7503 5.84881 10.7628C5.814 10.7688 5.76823 10.7688 5.71053 10.7688ZM5.71053 10.1954V10.3524C5.69337 10.3524 5.67 10.3524 5.6414 10.3524L5.55509 10.3464V10.6118H5.64712C5.67 10.6118 5.69337 10.6118 5.71053 10.6118V10.7688C5.69909 10.7688 5.68145 10.7688 5.66428 10.7688H5.54937L5.54365 11.1188L5.36484 11.1128L5.38248 10.1894L5.66428 10.1954C5.68145 10.1954 5.69909 10.1954 5.71053 10.1954ZM4.04691 10.6783V10.3944C4.09888 10.4064 4.13321 10.4064 4.15038 10.4064C4.17374 10.4004 4.19091 10.3944 4.20807 10.3764C4.21952 10.3584 4.23096 10.3399 4.23668 10.3099C4.24241 10.2799 4.23668 10.2554 4.22524 10.2314C4.2138 10.2074 4.19091 10.1954 4.16182 10.1834C4.15038 10.1774 4.11033 10.1714 4.04691 10.1589V10.0019L4.12177 10.0144C4.2138 10.0324 4.27721 10.0504 4.31727 10.0744C4.3578 10.0989 4.38641 10.1349 4.40357 10.1834C4.42121 10.2254 4.42694 10.2799 4.41549 10.3344C4.40357 10.4004 4.37496 10.4549 4.32919 10.4909C4.28866 10.5274 4.22524 10.5454 4.14466 10.5454C4.17947 10.5753 4.20807 10.6058 4.22524 10.6358C4.24813 10.6723 4.27149 10.7263 4.3001 10.8048L4.37496 11.0043L4.16755 10.9618L4.07552 10.7383C4.06408 10.7203 4.05835 10.6963 4.04691 10.6783ZM4.55329 10.1049L4.7259 10.1229L4.68585 10.6238C4.68013 10.7023 4.68013 10.7568 4.68013 10.7748C4.68585 10.8168 4.70301 10.8473 4.7259 10.8713C4.75499 10.9013 4.78932 10.9133 4.84129 10.9198C4.89326 10.9258 4.93332 10.9133 4.95621 10.8953C4.98529 10.8773 5.00246 10.8533 5.0139 10.8228C5.01962 10.7928 5.02534 10.7383 5.03107 10.6658L5.0716 10.1529L5.24993 10.1714L5.20987 10.6538C5.20415 10.7688 5.19223 10.8473 5.17507 10.8893C5.16362 10.9318 5.14073 10.9738 5.11737 10.9978C5.08876 11.0283 5.04871 11.0523 5.00246 11.0643C4.96193 11.0828 4.90471 11.0828 4.83557 11.0763C4.74927 11.0703 4.68585 11.0523 4.64532 11.0283C4.60527 11.0043 4.57046 10.9738 4.54757 10.9438C4.52468 10.9073 4.51324 10.8713 4.50752 10.8353C4.5018 10.7808 4.5018 10.7023 4.50752 10.5998L4.55329 10.1049ZM3.15478 10.3764L3.18911 10.2254L3.56341 10.3279L3.47139 10.6843C3.42514 10.7143 3.36744 10.7323 3.28686 10.7383C3.212 10.7443 3.14334 10.7383 3.0742 10.7203C2.98169 10.6963 2.90731 10.6538 2.85534 10.5998C2.79764 10.5394 2.76331 10.4669 2.74615 10.3884C2.73422 10.3039 2.73423 10.2194 2.75759 10.1349C2.78048 10.0444 2.82053 9.96587 2.87822 9.89938C2.9302 9.83938 2.99934 9.80288 3.07992 9.78488C3.14334 9.76688 3.21772 9.77288 3.29878 9.79688C3.40225 9.82688 3.48283 9.86938 3.52861 9.93587C3.57486 9.99587 3.59775 10.0744 3.59202 10.1589L3.41369 10.1469C3.41369 10.0989 3.40225 10.0564 3.37316 10.0204C3.34455 9.98987 3.31022 9.95987 3.25825 9.94787C3.18339 9.92987 3.11997 9.93587 3.06228 9.97187C3.00506 10.0084 2.96453 10.0804 2.93592 10.1774C2.90731 10.2859 2.91303 10.3704 2.94164 10.4369C2.97597 10.5029 3.02795 10.5454 3.09708 10.5633C3.13714 10.5753 3.17195 10.5753 3.212 10.5753C3.25253 10.5693 3.28686 10.5573 3.32167 10.5454L3.35028 10.4309L3.15478 10.3764ZM4.04691 10.0019L3.74747 9.94787L3.59775 10.8593L3.77035 10.8893L3.83377 10.5094L3.8743 10.5154C3.91435 10.5214 3.94344 10.5333 3.96061 10.5393C3.97777 10.5513 3.98921 10.5693 4.00638 10.5878C4.0121 10.6058 4.02974 10.6358 4.04691 10.6783V10.3944C4.02974 10.3944 4.0121 10.3884 3.98921 10.3884L3.86286 10.3644L3.89719 10.1349L4.03547 10.1589C4.04119 10.1589 4.04691 10.1589 4.04691 10.1589V10.0019Z" fill="#003399"/>
<path fill-rule="evenodd" clip-rule="evenodd" d="M31.482 8.87317V7.17074H32.1958V4.17686L31.482 5.6738V1.93745H34.2852L34.999 10.5451H32.1958V8.87317H31.482ZM31.482 1.93745V5.6738L30.7682 7.17074H31.482V8.87317H30.135L29.5823 10.4546H27.8438V8.48668L29.7835 4.09837H29.3863L30.4916 1.93745H31.482ZM27.8438 4.80484L28.7131 2.64393L27.8438 2.13695V4.80484ZM20.9304 3.97787C20.971 3.73038 20.971 3.48889 20.9304 3.2594V3.97787ZM27.8438 2.13695V4.80484L27.7289 5.09432C26.0133 3.80888 23.4805 4.97983 23.3365 6.33777C23.1929 7.75621 24.2233 8.90316 26.854 8.0462L25.9499 10.5811C22.4791 10.9856 21.1321 9.54314 20.9304 7.85921V6.90525C20.9824 6.46477 21.0916 6.03628 21.2413 5.6378C22.9512 1.18299 25.7253 2.18494 26.7791 2.10045L26.9345 1.60547L27.8438 2.13695ZM27.8438 8.48668L26.9746 10.4546H27.8438V8.48668ZM17.8106 10.4001C19.6697 10.0141 21.4945 7.67172 19.664 5.80679C20.3778 5.40831 20.8212 4.69034 20.9304 3.97787V3.2594C20.8041 2.51693 20.2572 1.91346 19.2268 1.89546L17.8106 1.86496V3.51889H18.3976C19.0251 3.51889 18.9445 5.22132 18.1615 5.22132H17.8106V6.52526C18.657 6.69426 18.3575 7.92521 17.8106 8.30569V10.4001ZM20.9304 6.90525V7.85921C20.8961 7.54522 20.8961 7.22523 20.9304 6.90525ZM15.3583 1.81096L14.213 4.14086L14.7251 4.09837L13.3438 10.4546H17.2985C17.4711 10.4546 17.638 10.4366 17.8106 10.4001V8.30569C17.7128 8.37819 17.6032 8.42019 17.494 8.42019H16.0721L16.5442 6.50676H17.6089C17.6838 6.50676 17.7529 6.51276 17.8106 6.52526V5.22132H16.8202L17.2174 3.51889H17.8106V1.86496L15.3583 1.81096Z" fill="#003399"/>
</svg>
