<svg width="35" height="32" viewBox="0 0 35 32" fill="none" xmlns="http://www.w3.org/2000/svg">
<path fill-rule="evenodd" clip-rule="evenodd" d="M6.93893 3.26354C6.93893 1.46127 8.29435 0 9.96607 0H25.019C26.6907 0 28.0449 1.46127 28.0449 3.26354V19.492C28.0449 21.2943 26.6907 22.7555 25.019 22.7555H9.96607C8.29435 22.7555 6.93893 21.2943 6.93893 19.492V3.26354ZM10.6209 20.5257C9.73007 20.5257 9.00727 19.7464 9.00727 18.7847V3.97486C9.00727 3.01444 9.73007 2.23519 10.6209 2.23519H12.4619C14.8886 2.23519 16.6851 4.88465 15.1332 6.56038L10.632 11.4197L14.4956 15.7835C16.3688 17.8988 14.1744 20.5257 12.0962 20.5257H10.6209ZM16.4639 2.23519H18.0195C20.4449 2.23519 22.2414 4.88465 20.6908 6.56038L16.1884 11.4197L24.4642 20.5217L15.7312 20.5203C17.6068 20.5203 18.7917 17.1169 16.7839 14.8631L13.7172 11.4197L17.2868 7.45286C19.2093 5.31624 17.8144 2.56687 16.4639 2.23519ZM25.9753 18.7847L19.2736 11.4197L22.8444 7.45286C24.7669 5.31624 23.3707 2.56687 22.0202 2.23519H24.3579C25.25 2.23519 25.9728 3.01444 25.9728 3.97486L25.9753 18.7847ZM1.36653 29.6329V30.9597H1.91513C2.20054 30.9597 2.41676 30.9011 2.5638 30.7865C2.71083 30.6719 2.78496 30.5041 2.78496 30.2843C2.78496 30.0672 2.71701 29.9047 2.58233 29.7954C2.44765 29.6875 2.24626 29.6329 1.97814 29.6329H1.36653ZM1.36653 27.3711V28.6326H1.79033C2.08563 28.6326 2.30556 28.5779 2.4526 28.4714C2.59839 28.3635 2.67129 28.1996 2.67129 27.9799C2.67129 27.78 2.60334 27.6295 2.46495 27.5256C2.3278 27.4231 2.12394 27.3711 1.85705 27.3711H1.36653ZM0 26.3534H2.14371C2.77755 26.3534 3.25448 26.476 3.57325 26.7211C3.89327 26.9675 4.05265 27.3325 4.05265 27.8173C4.05265 28.1424 3.96863 28.4141 3.80183 28.6299C3.63503 28.8457 3.39163 29.0015 3.07161 29.0961C3.43116 29.168 3.70669 29.3199 3.89944 29.5517C4.09219 29.7835 4.18857 30.0792 4.18857 30.4388C4.18857 30.969 4.01311 31.3619 3.66098 31.6177C3.31008 31.8721 2.7689 32 2.03745 32H0V26.3534H0ZM7.17863 27.6135L6.50031 29.7302H7.83472L7.17863 27.6135ZM6.36439 26.3534H8.04847L10.0316 32H8.53899L8.16708 30.8038H6.15064L5.7602 32H4.37884L6.36439 26.3534ZM10.333 26.3534H12.0764L13.5925 29.7395C13.6443 29.8527 13.7049 30.0112 13.7741 30.2137C13.842 30.4162 13.9186 30.6653 14.0014 30.9597C13.9582 30.6813 13.9248 30.4255 13.9038 30.1924C13.8828 29.9593 13.8729 29.7462 13.8729 29.553V26.3534H15.1332V32H13.3972L11.8219 28.4914C11.749 28.3302 11.681 28.1544 11.6193 27.9652C11.5587 27.776 11.5019 27.5696 11.45 27.3471C11.4994 27.6841 11.5352 27.9932 11.5587 28.2756C11.5822 28.5566 11.5945 28.8057 11.5945 29.0202V32H10.333V26.3534ZM16.1241 26.3534H17.5203V28.7937L19.1426 26.3534H20.7056L18.7818 28.9483L20.9021 32H19.1673L17.5203 29.3812V32H16.1241V26.3534ZM24.9646 29.6329V30.9597H25.5144C25.7986 30.9597 26.0148 30.9011 26.1619 30.7865C26.3101 30.6719 26.383 30.5041 26.383 30.2843C26.383 30.0672 26.3163 29.9047 26.1804 29.7954C26.0457 29.6875 25.8443 29.6329 25.5762 29.6329H24.9646ZM24.9646 27.3711V28.6326H25.3884C25.6837 28.6326 25.9049 28.5779 26.0507 28.4714C26.1964 28.3635 26.2706 28.1996 26.2706 27.9799C26.2706 27.78 26.2014 27.6295 26.063 27.5256C25.9259 27.4231 25.7232 27.3711 25.4551 27.3711H24.9646ZM23.5981 26.3534H25.743C26.3768 26.3534 26.8525 26.476 27.1725 26.7211C27.4913 26.9675 27.6507 27.3325 27.6507 27.8173C27.6507 28.1424 27.5679 28.4141 27.4011 28.6299C27.2331 28.8457 26.9897 29.0015 26.6709 29.0961C27.0292 29.168 27.3048 29.3199 27.4975 29.5517C27.6902 29.7835 27.7866 30.0792 27.7866 30.4388C27.7866 30.969 27.6112 31.3619 27.2603 31.6177C26.9094 31.8721 26.367 32 25.6355 32H23.5981V26.3534ZM29.9773 27.3471V28.7951H30.4678C30.7693 28.7951 30.9966 28.7351 31.1474 28.6179C31.2981 28.4994 31.3735 28.3222 31.3735 28.0864C31.3735 27.832 31.2894 27.6455 31.1214 27.5256C30.9534 27.4057 30.6877 27.3471 30.3232 27.3471H29.9773ZM28.612 26.3534H30.6927C31.3858 26.3534 31.8998 26.4746 32.2359 26.7171C32.572 26.9595 32.74 27.3285 32.74 27.824C32.74 28.1903 32.651 28.4914 32.4743 28.7271C32.2964 28.9629 32.0407 29.1201 31.7058 29.2C31.9814 29.3079 32.2025 29.617 32.3706 30.1258L32.9958 32H31.5403L31.0794 30.4548C31.0053 30.2057 30.9052 30.0339 30.7767 29.938C30.6494 29.8434 30.4505 29.7954 30.1799 29.7954H29.9773V32H28.612V26.3534ZM33.5703 26.3534H34.9665V32H33.5703V26.3534Z" fill="#1F4396"/>
</svg>
