<svg width="35" height="12" viewBox="0 0 35 12" fill="none" xmlns="http://www.w3.org/2000/svg">
<g clip-path="url(#clip0_117_2903)">
<path d="M19.0187 10.3743C18.9826 11.0788 18.6807 11.5608 18.1019 11.8533C17.9336 11.9378 17.7769 11.8708 17.7004 11.6918C17.6413 11.5533 17.7091 11.3963 17.8672 11.3228C18.2773 11.1328 18.4571 10.7433 18.4494 10.3763C18.4398 9.92983 18.1831 9.58933 17.7788 9.44283C17.3894 9.30233 16.9826 9.43883 16.6951 9.80733C16.4744 10.0903 16.4557 10.5793 16.6494 10.9068C16.7567 11.0888 16.8985 11.2258 17.085 11.3173C17.261 11.4033 17.323 11.5623 17.2519 11.7198C17.1793 11.8803 17.0071 11.9318 16.8345 11.8408C16.3711 11.5978 16.0672 11.2198 15.9744 10.6833C15.8278 9.83533 16.3369 9.07483 17.0706 8.86383C17.9379 8.61433 18.7706 9.18433 18.9648 10.0088C18.9951 10.1388 19.0043 10.2748 19.0187 10.3743Z" fill="#00AA11"/>
<path d="M21.2325 9.51329C21.2373 9.44579 21.2407 9.39229 21.245 9.33079C21.395 9.33079 21.5393 9.33079 21.6926 9.33079C21.696 9.36479 21.7023 9.39729 21.7023 9.42979C21.7027 9.97979 21.7051 10.5303 21.7013 11.0808C21.6984 11.4203 21.5724 11.6998 21.2806 11.8708C20.9152 12.0858 20.345 12.0183 20.0186 11.7328C19.9878 11.7058 19.9585 11.6773 19.9224 11.6438C20.0196 11.5443 20.1148 11.4468 20.2196 11.3398C20.3825 11.4758 20.5652 11.5443 20.7787 11.5378C21.108 11.5273 21.2705 11.3398 21.2277 10.9748C20.9518 11.1993 20.6479 11.2078 20.3388 11.1003C20.1547 11.0363 20.0095 10.9083 19.9061 10.7293C19.6883 10.3518 19.7446 9.87279 20.046 9.58029C20.3691 9.26679 20.8575 9.23479 21.2325 9.51329ZM21.2138 10.2448C21.2138 9.92579 21.0474 9.75179 20.7446 9.75479C20.4595 9.75729 20.2676 9.95179 20.2571 10.2218C20.2436 10.5743 20.4638 10.7328 20.7551 10.7288C21.0547 10.7243 21.2138 10.5598 21.2138 10.2448Z" fill="black"/>
<path d="M28.8254 9.32558C28.5495 9.59608 28.298 9.84308 28.0427 10.0936C28.3023 10.4526 28.5562 10.8036 28.8273 11.1786C28.6418 11.1786 28.4884 11.1836 28.3355 11.1751C28.2999 11.1731 28.2576 11.1336 28.2336 11.1001C28.0922 10.9041 27.9562 10.7041 27.8177 10.5061C27.7946 10.4726 27.7696 10.4406 27.7283 10.3836C27.6288 10.5021 27.5019 10.5951 27.4586 10.7201C27.4134 10.8506 27.4485 11.0111 27.4485 11.1791C27.3658 11.1791 27.2942 11.1791 27.2225 11.1791C27.1543 11.1791 27.0855 11.1791 27.0062 11.1791C27.0028 11.1236 26.9985 11.0791 26.9985 11.0341C26.998 10.3401 27.0014 9.64558 26.9946 8.95108C26.9937 8.81758 27.0331 8.77908 27.1543 8.79258C27.2461 8.80308 27.3394 8.79458 27.447 8.79458C27.447 9.21658 27.447 9.62358 27.447 10.0651C27.587 9.93358 27.7038 9.82608 27.8182 9.71608C27.935 9.60458 28.0485 9.48958 28.1658 9.37908C28.1913 9.35508 28.2264 9.32858 28.2581 9.32758C28.435 9.32308 28.6124 9.32558 28.8254 9.32558Z" fill="black"/>
<path d="M25.3707 10.4097C25.3986 10.6057 25.5789 10.7557 25.7866 10.7727C25.9621 10.7872 26.1265 10.7607 26.2698 10.6422C26.2928 10.6232 26.3419 10.6082 26.3616 10.6207C26.4577 10.6822 26.5476 10.7532 26.6486 10.8272C26.3376 11.1497 25.9832 11.2382 25.5765 11.1337C25.2452 11.0487 25.0053 10.8552 24.9275 10.5022C24.7587 9.73367 25.3279 9.22567 25.9856 9.34167C26.3674 9.40867 26.6049 9.64167 26.6943 10.0297C26.7212 10.1457 26.7135 10.2702 26.7227 10.4097C26.4837 10.4097 26.2611 10.4097 26.0385 10.4097C25.8193 10.4097 25.5996 10.4097 25.3707 10.4097ZM26.2539 10.0557C26.2231 9.82517 26.0467 9.71517 25.7501 9.72967C25.5376 9.73967 25.3933 9.86567 25.3827 10.0557C25.6712 10.0557 25.9587 10.0557 26.2539 10.0557Z" fill="black"/>
<path d="M22.9157 9.29883C23.4416 9.32083 23.8325 9.66133 23.8719 10.1918C23.8984 10.5538 23.7455 10.8443 23.4397 11.0393C23.0892 11.2628 22.5335 11.2028 22.2368 10.9048C21.7916 10.4573 21.9277 9.66833 22.4979 9.42083C22.6301 9.36333 22.7758 9.33883 22.9157 9.29883ZM23.394 10.2528C23.3931 9.95183 23.2085 9.75283 22.9291 9.75483C22.6157 9.75733 22.4517 9.96733 22.4412 10.2538C22.4311 10.5293 22.658 10.7503 22.9239 10.7483C23.208 10.7458 23.395 10.5488 23.394 10.2528Z" fill="black"/>
<path d="M24.1479 9.32617C24.309 9.32617 24.4508 9.32617 24.6124 9.32617C24.6124 9.36767 24.6124 9.40767 24.6124 9.44767C24.6124 10.1172 24.6124 10.7867 24.6119 11.4562C24.6119 11.7937 24.4224 11.9902 24.0974 11.9912C23.9724 11.9917 23.847 11.9917 23.7085 11.9917C23.7085 11.9122 23.7085 11.8457 23.7085 11.7792C23.7085 11.7122 23.7085 11.6447 23.7085 11.5542C23.7922 11.5542 23.8681 11.5572 23.9436 11.5532C24.1152 11.5447 24.1479 11.5082 24.1479 11.3322C24.1479 10.7137 24.1479 10.0952 24.1479 9.47667C24.1479 9.43067 24.1479 9.38517 24.1479 9.32617Z" fill="black"/>
<path d="M16.9142 10.3815C16.8791 10.1105 17.2094 9.78453 17.4897 9.80353C17.8003 9.82503 18.057 10.0765 18.0551 10.399C18.0531 10.72 17.7849 11.0035 17.4762 10.995C17.1671 10.9865 16.8959 10.732 16.9142 10.3815Z" fill="#00AA11"/>
<path d="M6.17188 9.55078H6.6512C6.91226 9.55078 7.06659 9.70378 7.06659 9.94928C7.06659 10.1988 6.91418 10.3448 6.6512 10.3448H6.31755V10.8433H6.17188V9.55078ZM6.64255 10.2008C6.83245 10.2008 6.91947 10.1213 6.91947 9.94928C6.91947 9.77778 6.82861 9.69478 6.64255 9.69478H6.31755V10.2008H6.64255Z" fill="black"/>
<path d="M7.58148 9.83691C7.84782 9.83691 8.02571 10.0454 8.02571 10.3539C8.02571 10.6624 7.84782 10.8709 7.58148 10.8709C7.31705 10.8709 7.13965 10.6624 7.13965 10.3539C7.13965 10.0454 7.31705 9.83691 7.58148 9.83691ZM7.58148 9.97191C7.39542 9.97191 7.27811 10.1194 7.27811 10.3539C7.27811 10.5884 7.39542 10.7359 7.58148 10.7359C7.76801 10.7359 7.88724 10.5884 7.88724 10.3539C7.88724 10.1194 7.76801 9.97191 7.58148 9.97191Z" fill="black"/>
<path d="M8.11523 9.86426H8.25177L8.42197 10.6253H8.42581L8.67773 9.86426H8.8037L9.0561 10.6253H9.05946L9.23014 9.86426H9.36668L9.1412 10.8433H9.00995L8.7436 10.0438H8.73975L8.47197 10.8433H8.34023L8.11523 9.86426Z" fill="black"/>
<path d="M9.89213 9.83691C10.1445 9.83691 10.3128 10.0344 10.3128 10.3224V10.3964H9.59742C9.60126 10.5849 9.71665 10.7399 9.88876 10.7399C10.0219 10.7399 10.0965 10.6899 10.1763 10.5439L10.2916 10.6159C10.2118 10.7839 10.0753 10.8709 9.89213 10.8709C9.63107 10.8709 9.45703 10.6624 9.45703 10.3539C9.45703 10.0454 9.63684 9.83691 9.89213 9.83691ZM10.1729 10.2799C10.171 10.1894 10.1426 10.1159 10.0912 10.0564C10.0397 9.99741 9.97386 9.96791 9.89213 9.96791C9.73251 9.96791 9.60463 10.1159 9.60126 10.2799H10.1729Z" fill="black"/>
<path d="M10.5107 9.86416H10.642V9.94566H10.6454C10.6809 9.88466 10.7502 9.84766 10.8406 9.84766C10.8689 9.84766 10.9011 9.85316 10.9348 9.86266L10.9045 10.0122C10.8708 10.0012 10.8391 9.99566 10.8122 9.99566C10.7006 9.99566 10.6487 10.0732 10.6487 10.2557V10.8432H10.5107V9.86416Z" fill="black"/>
<path d="M11.4331 9.83691C11.6851 9.83691 11.8538 10.0344 11.8538 10.3224V10.3964H11.1384C11.1418 10.5849 11.2572 10.7399 11.4293 10.7399C11.5625 10.7399 11.6375 10.6899 11.7173 10.5439L11.8327 10.6159C11.7529 10.7839 11.6158 10.8709 11.4331 10.8709C11.1721 10.8709 10.998 10.6624 10.998 10.3539C10.998 10.0454 11.1774 9.83691 11.4331 9.83691ZM11.7134 10.2799C11.712 10.1894 11.6836 10.1159 11.6322 10.0564C11.5803 9.99741 11.5149 9.96791 11.4331 9.96791C11.2735 9.96791 11.1456 10.1159 11.1418 10.2799H11.7134Z" fill="black"/>
<path d="M12.4377 9.83662C12.5517 9.83662 12.6526 9.88662 12.7147 9.96762H12.7185V9.49512H12.857V10.8431H12.7238V10.7451H12.7199C12.6579 10.8246 12.5531 10.8706 12.4377 10.8706C12.193 10.8706 12.0151 10.6581 12.0151 10.3536C12.0151 10.0491 12.193 9.83662 12.4377 9.83662ZM12.7185 10.2576C12.7185 10.0986 12.594 9.97162 12.4377 9.97162C12.269 9.97162 12.1536 10.1226 12.1536 10.3536C12.1536 10.5846 12.269 10.7356 12.4469 10.7356C12.5959 10.7356 12.7185 10.6066 12.7185 10.4476V10.2576Z" fill="black"/>
<path d="M13.704 10.7451V10.8431H13.5713V9.49512H13.7093V9.96762H13.7131C13.7751 9.88662 13.8766 9.83662 13.99 9.83662C14.2352 9.83662 14.4126 10.0491 14.4126 10.3536C14.4126 10.6581 14.2352 10.8706 13.99 10.8706C13.8747 10.8706 13.7698 10.8246 13.7078 10.7451H13.704ZM13.99 9.97162C13.8338 9.97162 13.7093 10.0986 13.7093 10.2576V10.4476C13.7093 10.6066 13.8319 10.7356 13.9809 10.7356C14.1588 10.7356 14.2742 10.5846 14.2742 10.3536C14.2742 10.1226 14.1588 9.97162 13.99 9.97162Z" fill="black"/>
<path d="M14.8205 10.7598L14.4585 9.86426H14.6061L14.8917 10.5938H14.895L15.183 9.86426H15.3301L14.7657 11.2583H14.622L14.8205 10.7598Z" fill="black"/>
<path d="M3.81875 0.00390625C5.9274 0.00390625 7.63702 1.71991 7.63702 3.83641C7.63702 5.95291 5.9274 7.66891 3.81875 7.66891C1.70962 7.66891 0 5.95291 0 3.83641C0 1.71991 1.70962 0.00390625 3.81875 0.00390625Z" fill="#00AED6"/>
<path fill-rule="evenodd" clip-rule="evenodd" d="M6.0461 3.71874C6.01678 3.23074 5.60331 2.85674 5.11678 2.87874H2.70476C2.61677 2.87874 2.54562 2.80724 2.54562 2.71874C2.54562 2.63074 2.61677 2.55924 2.70476 2.55924H5.14851C5.13456 2.22874 4.90956 1.94474 4.59178 1.85674C3.87928 1.72874 3.14995 1.72874 2.43745 1.85674C2.03264 1.95674 1.72976 2.29474 1.67399 2.70924C1.56245 3.46124 1.56245 4.22524 1.67399 4.97674C1.75908 5.41574 2.1062 5.75524 2.54562 5.82974C3.42879 5.94124 4.32254 5.94124 5.20572 5.82974C5.59947 5.74974 5.89707 5.42524 5.94418 5.02474C6.02495 4.59424 6.05908 4.15624 6.0461 3.71874ZM5.25043 4.25524V4.39574C5.25043 4.48374 5.17928 4.55524 5.0913 4.55524C5.00331 4.55524 4.93216 4.48374 4.93216 4.39574V4.25524C4.88072 4.21024 4.85187 4.14474 4.85283 4.07624C4.85283 3.94374 4.95956 3.83674 5.0913 3.83674C5.22303 3.83674 5.32976 3.94374 5.32976 4.07624C5.32928 4.14424 5.30043 4.20924 5.25043 4.25524Z" fill="white"/>
<path d="M18.5131 3.4058C18.5183 2.7338 17.9799 2.1848 17.3102 2.1793C16.6405 2.1743 16.0938 2.7143 16.0885 3.3863C16.0832 4.0583 16.6217 4.6078 17.2914 4.6128C17.2977 4.6128 17.3039 4.6128 17.3102 4.6128C17.9453 4.6473 18.4881 4.1578 18.5222 3.5203C18.5241 3.4823 18.5241 3.4438 18.5227 3.4058H18.5131ZM14.9111 3.4058C14.9111 2.1283 15.9164 1.1543 17.3102 1.1543C18.7039 1.1543 19.7097 2.1343 19.7097 3.4058C19.7097 4.6768 18.7135 5.6603 17.3102 5.6603C15.9068 5.6603 14.9111 4.6798 14.9111 3.4058Z" fill="black"/>
<path d="M13.0026 3.63765C13.0026 4.16465 12.468 4.59565 11.7906 4.59565C11.168 4.65915 10.6122 4.20365 10.5492 3.57865C10.543 3.51565 10.542 3.45215 10.5464 3.38865C10.5464 2.69215 11.0555 2.21315 11.8382 2.21315C12.4747 2.21315 13.0026 2.65065 13.0026 3.14565V3.63765ZM13.0502 1.14965V1.65415C12.6632 1.30115 12.1502 1.12065 11.6281 1.15315C10.3935 1.16415 9.40212 2.17815 9.41318 3.41715C9.42472 4.65615 10.4348 5.65165 11.6694 5.64015C12.1776 5.66315 12.6723 5.47215 13.0343 5.11315V5.54415C13.0343 6.12865 12.5319 6.55665 11.8699 6.55665C11.3646 6.59315 10.8665 6.41765 10.4954 6.07115L9.72183 6.81865C10.3016 7.38965 11.0896 7.69665 11.9016 7.66815C13.2574 7.66815 14.1863 6.75465 14.1863 5.53815V1.14965H13.0502Z" fill="black"/>
<path d="M20.4106 1.28159H21.5496V1.65859H21.5655C21.939 1.31659 22.4323 1.13759 22.9371 1.16009C24.177 1.20709 25.1443 2.25409 25.0977 3.49809C25.0534 4.6771 24.1116 5.6221 22.9371 5.6666C22.4549 5.6776 21.9842 5.5186 21.6068 5.2161V7.3496H20.4203L20.4106 1.28159ZM22.7525 2.21409C22.1159 2.21409 21.5977 2.65809 21.5977 3.14059V3.68009C21.5977 4.1941 22.1097 4.6191 22.7587 4.6191C23.4207 4.6531 23.9847 4.1426 24.0188 3.4786C24.053 2.81459 23.5443 2.24859 22.8823 2.21409C22.8414 2.21209 22.8001 2.21209 22.7587 2.21409H22.7525Z" fill="black"/>
<path d="M27.3757 2.99373C28.1555 2.88823 28.3878 2.77623 28.3878 2.55923C28.3878 2.27823 28.0921 2.10873 27.6334 2.10873C27.1397 2.06823 26.6902 2.39523 26.5738 2.87873L25.4541 2.64523C25.6132 1.77673 26.5041 1.15723 27.6017 1.15723C28.843 1.15723 29.6128 1.79573 29.6128 2.83073V5.54223H28.5469V5.06973H28.531C28.1695 5.47823 27.6392 5.69523 27.0959 5.65723C26.157 5.65723 25.5046 5.14273 25.5046 4.37973C25.5046 3.61623 26.0392 3.17873 27.3757 2.99373ZM28.4834 3.44373H28.4676C28.3623 3.59723 28.1493 3.68673 27.5604 3.78873C26.8637 3.91973 26.606 4.05723 26.606 4.30623C26.606 4.55523 26.8128 4.67673 27.2613 4.67673C27.9454 4.67673 28.4738 4.35723 28.4738 3.95173L28.4834 3.44373Z" fill="black"/>
<path d="M31.7603 5.30225L29.7969 1.28125H31.105L32.3935 4.06625H32.4127L33.6853 1.28125H34.9998L32.0594 7.34925H30.7517L31.7603 5.30225Z" fill="black"/>
</g>
<defs>
<clipPath id="clip0_117_2903">
<rect width="35" height="12" fill="white"/>
</clipPath>
</defs>
</svg>
