<svg width="35" height="12" viewBox="0 0 35 12" fill="none" xmlns="http://www.w3.org/2000/svg">
<path fill-rule="evenodd" clip-rule="evenodd" d="M11.8642 0.331523H16.3651L16.3681 2.21843L15.2599 2.21533L17.8882 8.7343L20.472 2.22153H19.3342L19.3312 0.337721L22.9373 0.334624L22.9313 1.40976L18.5934 12C17.5474 12.0031 16.8659 11.6065 16.5014 10.7761L12.9309 2.22153H11.8612L11.8642 0.331523ZM5.66839 0C8.80037 0 11.3397 2.67389 11.3397 5.97056C11.3397 9.26722 8.80037 11.938 5.66839 11.938C2.53937 11.938 0 9.26722 0 5.97056C0 2.67389 2.53937 0 5.66839 0ZM5.65357 1.95197C7.62699 1.95197 9.22706 3.77072 9.22706 6.01394C9.22706 8.25716 7.62699 10.0728 5.65357 10.0728C3.67719 10.0728 2.07713 8.25716 2.07713 6.01394C2.07713 3.77072 3.67719 1.95197 5.65357 1.95197ZM29.3286 0C32.4606 0 35 2.67389 35 5.97056C35 9.26722 32.4606 11.938 29.3286 11.938C26.1996 11.938 23.6603 9.26722 23.6603 5.97056C23.6603 2.67389 26.1996 0 29.3286 0ZM29.3138 1.95197C31.2873 1.95197 32.8873 3.77072 32.8873 6.01394C32.8873 8.25716 31.2873 10.0728 29.3138 10.0728C27.3375 10.0728 25.7374 8.25716 25.7374 6.01394C25.7374 3.77072 27.3375 1.95197 29.3138 1.95197Z" fill="#4C3494"/>
</svg>
